<svg xmlns="http://www.w3.org/2000/svg" xmlns:xlink="http://www.w3.org/1999/xlink" width="436" zoomAndPan="magnify" viewBox="0 0 327 326.999992" height="436" preserveAspectRatio="xMidYMid meet" version="1.0"><defs><clipPath id="246485a874"><path d="M 15 15.457031 L 325 15.457031 L 325 314.707031 L 15 314.707031 Z M 15 15.457031 " clip-rule="nonzero"/></clipPath></defs><g clip-path="url(#246485a874)"><path fill="#000000" d="M 311.09375 250.832031 L 282.324219 209.296875 C 264.261719 184.105469 241.257812 120.964844 240.597656 94.789062 L 240.523438 90.886719 C 240.351562 80.078125 240.15625 67.832031 233.460938 57.492188 C 223.792969 42.550781 202.707031 37.558594 187.402344 46.617188 C 177.769531 52.308594 171.898438 62.695312 170.945312 73.523438 C 155.414062 59.589844 145.046875 39.554688 135.859375 21.621094 L 132.695312 15.457031 L 126.246094 17.972656 C 101.8125 27.503906 74.113281 38.3125 55.976562 60.734375 C 36.058594 85.378906 30.734375 118.421875 42.738281 142.953125 L 43.476562 144.464844 L 96.613281 187.878906 L 15.960938 187.878906 L 15.960938 203.238281 L 115.410156 203.238281 L 155.902344 236.324219 L 165.59375 224.421875 L 55.828125 134.730469 C 49.414062 120.382812 50.964844 104.347656 56.449219 90.363281 L 237.113281 253.304688 C 256.957031 269.265625 282.773438 280.625 308.914062 285.1875 C 308.761719 286.5625 308.476562 287.90625 307.902344 289.179688 C 304.03125 297.726562 291.070312 299.953125 280.230469 299.117188 C 253.902344 297.183594 228.449219 285.015625 210.386719 265.738281 L 208.144531 263.34375 L 50.820312 261.949219 L 50.6875 277.308594 L 201.515625 278.644531 C 222.003906 299.3125 250.101562 312.304688 279.113281 314.4375 C 280.96875 314.570312 282.789062 314.640625 284.566406 314.640625 C 302.609375 314.640625 316.351562 307.691406 321.867188 295.535156 C 329.863281 277.902344 316.707031 258.925781 311.09375 250.832031 Z M 195.1875 59.847656 C 203.324219 55.027344 215.433594 57.886719 220.585938 65.84375 C 224.882812 72.492188 225.035156 81.546875 225.183594 91.132812 L 225.207031 92.328125 C 212.511719 93.140625 199.535156 90.578125 188.035156 85.070312 L 188.140625 85.011719 C 183.675781 76.65625 187.039062 64.660156 195.1875 59.847656 Z M 63.703125 76.238281 C 65.039062 74.199219 66.429688 72.21875 67.898438 70.402344 C 82.015625 52.945312 104.433594 43.082031 125.386719 34.800781 C 135.496094 54.320312 147.359375 75.296875 166.34375 89.753906 C 183.296875 102.648438 205.324219 109.046875 226.578125 107.605469 C 228.078125 116.6875 230.789062 127.46875 234.269531 138.796875 L 202.210938 138.796875 L 202.210938 154.152344 L 239.367188 154.152344 C 242.035156 161.710938 244.945312 169.269531 248.015625 176.5625 L 226.742188 176.5625 L 226.742188 191.921875 L 254.890625 191.921875 C 259.859375 202.273438 264.960938 211.410156 269.792969 218.148438 L 298.496094 259.585938 C 300.511719 262.496094 302.460938 265.523438 304.15625 268.570312 C 283.109375 263.75 262.78125 254.257812 247.042969 241.609375 Z M 63.703125 76.238281 " fill-opacity="1" fill-rule="nonzero"/></g><path fill="#000000" d="M 0.128906 226.21875 L 77.964844 226.21875 L 77.964844 241.578125 L 0.128906 241.578125 Z M 0.128906 226.21875 " fill-opacity="1" fill-rule="nonzero"/></svg>