<svg xmlns="http://www.w3.org/2000/svg" xmlns:xlink="http://www.w3.org/1999/xlink" width="436" zoomAndPan="magnify" viewBox="0 0 327 326.999992" height="436" preserveAspectRatio="xMidYMid meet" version="1.0"><path fill="#000000" d="M 302.558594 203.941406 L 315.804688 37.179688 C 316.636719 28.222656 313.585938 19.433594 307.210938 12.429688 C 300.128906 4.648438 289.617188 0 279.09375 0 C 268.570312 0 258.058594 4.644531 250.976562 12.429688 C 244.601562 19.433594 241.550781 28.222656 242.386719 37.179688 L 254.292969 187.113281 C 216.972656 188.554688 187.054688 219.363281 187.054688 257.027344 C 187.054688 295.609375 218.445312 327 257.027344 327 C 295.609375 327 327 295.609375 327 257.027344 C 327 235.816406 317.511719 216.78125 302.558594 203.941406 Z M 307.882812 287.742188 L 285.863281 287.742188 L 276.820312 275.296875 L 283.777344 253.878906 L 298.410156 249.125 L 316.234375 262.078125 C 315.445312 271.40625 312.496094 280.132812 307.882812 287.742188 Z M 228.191406 287.742188 L 206.175781 287.742188 C 201.5625 280.132812 198.609375 271.40625 197.820312 262.078125 L 215.644531 249.128906 L 230.277344 253.878906 L 237.234375 275.296875 Z M 208.519531 241.265625 L 198.179688 248.777344 C 199.15625 241.765625 201.363281 235.140625 204.574219 229.125 Z M 246.863281 270.800781 L 240.582031 251.472656 L 257.027344 239.523438 L 273.472656 251.472656 L 267.191406 270.800781 Z M 267.371094 198.507812 L 257.027344 206.023438 L 246.683594 198.507812 C 250.042969 197.914062 253.5 197.601562 257.027344 197.601562 C 260.554688 197.605469 264.011719 197.914062 267.371094 198.507812 Z M 301.949219 218.167969 L 295.152344 239.09375 L 280.800781 243.757812 L 262.300781 230.316406 L 262.300781 215.230469 L 280.128906 202.277344 C 288.574219 205.855469 296.027344 211.332031 301.949219 218.167969 Z M 305.535156 241.265625 L 309.480469 229.125 C 312.691406 235.140625 314.898438 241.765625 315.875 248.777344 Z M 252.890625 36.230469 C 252.324219 30.253906 254.417969 24.320312 258.777344 19.527344 C 263.894531 13.90625 271.488281 10.546875 279.09375 10.546875 C 286.699219 10.546875 294.292969 13.90625 299.40625 19.527344 C 303.769531 24.320312 305.863281 30.253906 305.296875 36.230469 C 305.292969 36.257812 305.292969 36.285156 305.289062 36.308594 L 292.546875 196.765625 C 284.269531 191.867188 274.902344 188.625 264.902344 187.5 L 252.898438 36.308594 C 252.894531 36.285156 252.894531 36.257812 252.890625 36.230469 Z M 233.925781 202.277344 L 251.753906 215.230469 L 251.753906 230.320312 L 233.253906 243.757812 L 218.90625 239.09375 L 212.105469 218.167969 C 218.027344 211.332031 225.480469 205.855469 233.925781 202.277344 Z M 214.308594 298.292969 L 227.046875 298.292969 L 230.992188 310.4375 C 224.738281 307.375 219.097656 303.246094 214.308594 298.292969 Z M 243.539062 314.90625 L 236.726562 293.941406 L 245.875 281.351562 L 268.179688 281.351562 L 277.328125 293.941406 L 270.515625 314.90625 C 266.183594 315.917969 261.664062 316.453125 257.027344 316.453125 C 252.390625 316.453125 247.875 315.917969 243.539062 314.90625 Z M 283.0625 310.4375 L 287.007812 298.292969 L 299.746094 298.292969 C 294.957031 303.246094 289.316406 307.375 283.0625 310.4375 Z M 273.820312 127.429688 L 273.820312 51.660156 C 273.820312 48.746094 276.183594 46.386719 279.09375 46.386719 C 282.007812 46.386719 284.367188 48.746094 284.367188 51.660156 L 284.367188 127.429688 C 284.367188 130.339844 282.007812 132.703125 279.09375 132.703125 C 276.183594 132.703125 273.820312 130.339844 273.820312 127.429688 Z M 89.289062 178.546875 C 90.050781 173.585938 90.4375 168.542969 90.4375 163.5 C 90.4375 131.3125 74.664062 101.066406 48.242188 82.597656 C 46.425781 81.332031 44.011719 81.332031 42.195312 82.597656 C 15.773438 101.066406 0 131.3125 0 163.5 C 0 180.199219 4.21875 196.582031 12.230469 211.105469 C 4.503906 222.886719 0 236.96875 0 252.078125 C 0 293.390625 33.609375 327 74.917969 327 C 116.230469 327 149.839844 293.390625 149.839844 252.078125 C 149.839844 215.683594 123.75 185.269531 89.289062 178.546875 Z M 69.644531 187.925781 L 69.644531 246.804688 L 58.476562 246.804688 C 57.230469 229.128906 49.765625 212.484375 37.40625 199.800781 C 46.636719 193.160156 57.683594 188.902344 69.644531 187.925781 Z M 80.195312 246.804688 L 80.195312 187.925781 C 92.15625 188.902344 103.207031 193.160156 112.433594 199.800781 C 100.074219 212.484375 92.609375 229.128906 91.363281 246.804688 Z M 29.355469 206.65625 C 40.09375 217.441406 46.660156 231.660156 47.902344 246.804688 L 10.765625 246.804688 C 12.039062 231.191406 18.902344 217.136719 29.355469 206.65625 Z M 69.644531 257.355469 L 69.644531 316.234375 C 57.683594 315.257812 46.636719 311 37.410156 304.359375 C 49.765625 291.675781 57.230469 275.03125 58.476562 257.355469 Z M 80.195312 257.355469 L 91.363281 257.355469 C 92.609375 275.03125 100.074219 291.675781 112.433594 304.359375 C 103.207031 311 92.15625 315.257812 80.195312 316.234375 Z M 120.488281 206.65625 C 130.9375 217.136719 137.800781 231.191406 139.074219 246.804688 L 101.9375 246.804688 C 103.179688 231.660156 109.746094 217.441406 120.488281 206.65625 Z M 45.21875 93.453125 C 50.625 97.585938 55.484375 102.289062 59.734375 107.449219 C 55.210938 108.851562 50.296875 109.597656 45.21875 109.597656 C 40.136719 109.597656 35.222656 108.851562 30.699219 107.449219 C 34.953125 102.289062 39.808594 97.585938 45.21875 93.453125 Z M 10.546875 163.5 C 10.546875 146.597656 15.425781 130.300781 24.234375 116.382812 C 30.667969 118.851562 37.832031 120.144531 45.21875 120.144531 C 52.601562 120.144531 59.765625 118.851562 66.199219 116.382812 C 75.011719 130.300781 79.886719 146.597656 79.886719 163.5 C 79.886719 168.117188 79.527344 172.726562 78.820312 177.261719 C 77.527344 177.195312 76.226562 177.160156 74.917969 177.160156 C 66.371094 177.160156 58.152344 178.601562 50.492188 181.253906 L 50.492188 177.011719 L 51.847656 177.011719 C 54.761719 177.011719 57.121094 174.652344 57.121094 171.738281 C 57.121094 168.824219 54.761719 166.464844 51.847656 166.464844 L 50.492188 166.464844 L 50.492188 160.535156 L 51.847656 160.535156 C 54.761719 160.535156 57.121094 158.171875 57.121094 155.261719 C 57.121094 152.347656 54.761719 149.984375 51.847656 149.984375 L 50.492188 149.984375 L 50.492188 144.054688 L 51.847656 144.054688 C 54.761719 144.054688 57.121094 141.695312 57.121094 138.78125 C 57.121094 135.867188 54.761719 133.507812 51.847656 133.507812 L 50.492188 133.507812 L 50.492188 128.492188 C 50.492188 125.578125 48.132812 123.21875 45.21875 123.21875 C 42.304688 123.21875 39.945312 125.578125 39.945312 128.492188 L 39.945312 133.507812 L 38.589844 133.507812 C 35.675781 133.507812 33.316406 135.867188 33.316406 138.78125 C 33.316406 141.695312 35.675781 144.054688 38.589844 144.054688 L 39.945312 144.054688 L 39.945312 149.984375 L 38.589844 149.984375 C 35.675781 149.984375 33.316406 152.347656 33.316406 155.261719 C 33.316406 158.171875 35.675781 160.535156 38.589844 160.535156 L 39.945312 160.535156 L 39.945312 166.464844 L 38.589844 166.464844 C 35.675781 166.464844 33.316406 168.824219 33.316406 171.738281 C 33.316406 174.652344 35.675781 177.011719 38.589844 177.011719 L 39.945312 177.011719 L 39.945312 185.84375 C 32.167969 189.964844 25.203125 195.414062 19.347656 201.886719 C 13.582031 189.980469 10.546875 176.855469 10.546875 163.5 Z M 10.765625 257.355469 L 47.902344 257.355469 C 46.660156 272.5 40.09375 286.71875 29.351562 297.503906 C 18.902344 287.023438 12.039062 272.96875 10.765625 257.355469 Z M 120.488281 297.503906 C 109.746094 286.71875 103.179688 272.5 101.9375 257.355469 L 139.074219 257.355469 C 137.800781 272.96875 130.9375 287.023438 120.488281 297.503906 Z M 224.175781 166.460938 C 238.199219 148.066406 245.921875 123.691406 245.921875 97.820312 C 245.921875 71.953125 238.199219 47.578125 224.175781 29.183594 C 209.828125 10.363281 190.621094 0 170.09375 0 C 149.5625 0 130.355469 10.363281 116.007812 29.183594 C 101.984375 47.578125 94.265625 71.953125 94.265625 97.820312 C 94.265625 123.691406 101.988281 148.066406 116.007812 166.460938 C 126.78125 180.589844 140.296875 189.953125 155.050781 193.742188 L 155.050781 317.769531 C 155.050781 322.859375 159.191406 327 164.28125 327 L 175.902344 327 C 180.992188 327 185.132812 322.859375 185.132812 317.769531 L 185.132812 193.742188 C 199.890625 189.953125 213.402344 180.589844 224.175781 166.460938 Z M 104.8125 97.820312 C 104.8125 49.699219 134.097656 10.546875 170.09375 10.546875 C 206.089844 10.546875 235.375 49.699219 235.375 97.820312 C 235.375 145.945312 206.089844 185.09375 170.09375 185.09375 C 134.097656 185.09375 104.8125 145.945312 104.8125 97.820312 Z M 174.585938 316.453125 L 165.601562 316.453125 L 165.601562 195.46875 C 167.089844 195.582031 168.585938 195.644531 170.09375 195.644531 C 171.597656 195.644531 173.09375 195.582031 174.585938 195.46875 Z M 212.867188 155.566406 C 223.757812 140.070312 229.757812 119.566406 229.757812 97.820312 C 229.757812 76.078125 223.757812 55.570312 212.867188 40.078125 C 201.578125 24.019531 186.386719 15.175781 170.09375 15.175781 C 153.796875 15.175781 138.605469 24.019531 127.316406 40.078125 C 116.425781 55.570312 110.425781 76.078125 110.425781 97.820312 C 110.425781 119.566406 116.425781 140.070312 127.316406 155.566406 C 138.605469 171.625 153.796875 180.46875 170.09375 180.46875 C 186.386719 180.46875 201.578125 171.625 212.867188 155.566406 Z M 120.976562 97.820312 C 120.976562 94.378906 121.144531 90.992188 121.464844 87.675781 L 138.261719 87.675781 L 138.261719 107.964844 L 121.464844 107.964844 C 121.144531 104.652344 120.976562 101.265625 120.976562 97.820312 Z M 175.367188 77.128906 L 175.367188 56.839844 L 191.375 56.839844 L 191.375 77.128906 Z M 191.375 87.675781 L 191.375 107.964844 L 175.367188 107.964844 L 175.367188 87.675781 Z M 164.820312 77.128906 L 148.808594 77.128906 L 148.808594 56.839844 L 164.820312 56.839844 Z M 164.820312 87.675781 L 164.820312 107.964844 L 148.808594 107.964844 L 148.808594 87.675781 Z M 164.820312 118.515625 L 164.820312 138.804688 L 148.808594 138.804688 L 148.808594 118.515625 Z M 175.367188 118.515625 L 191.375 118.515625 L 191.375 138.804688 L 175.367188 138.804688 Z M 191.375 149.351562 L 191.375 162.792969 C 186.441406 166.292969 181.046875 168.609375 175.367188 169.503906 L 175.367188 149.351562 Z M 201.925781 149.351562 L 204.40625 149.351562 C 203.605469 150.503906 202.777344 151.613281 201.925781 152.683594 Z M 201.925781 138.804688 L 201.925781 118.515625 L 217.144531 118.515625 C 215.648438 125.832031 213.382812 132.664062 210.480469 138.804688 Z M 201.925781 107.964844 L 201.925781 87.675781 L 218.722656 87.675781 C 219.042969 90.992188 219.210938 94.378906 219.210938 97.824219 C 219.210938 101.265625 219.042969 104.652344 218.722656 107.96875 L 201.925781 107.96875 Z M 201.925781 77.128906 L 201.925781 56.839844 L 210.480469 56.839844 C 213.378906 62.980469 215.648438 69.808594 217.144531 77.128906 Z M 201.925781 46.289062 L 201.925781 42.960938 C 202.777344 44.027344 203.605469 45.140625 204.40625 46.289062 Z M 191.375 46.289062 L 175.367188 46.289062 L 175.367188 26.140625 C 181.046875 27.035156 186.441406 29.351562 191.378906 32.851562 Z M 164.820312 46.289062 L 148.808594 46.289062 L 148.808594 32.847656 C 153.746094 29.351562 159.140625 27.035156 164.820312 26.140625 Z M 138.261719 46.289062 L 135.777344 46.289062 C 136.578125 45.140625 137.40625 44.027344 138.261719 42.960938 Z M 138.261719 56.839844 L 138.261719 77.128906 L 123.039062 77.128906 C 124.539062 69.808594 126.804688 62.980469 129.707031 56.839844 Z M 138.261719 118.515625 L 138.261719 138.804688 L 129.707031 138.804688 C 126.804688 132.664062 124.535156 125.832031 123.039062 118.515625 Z M 138.261719 149.351562 L 138.261719 152.683594 C 137.40625 151.613281 136.578125 150.503906 135.777344 149.351562 Z M 148.808594 149.351562 L 164.820312 149.351562 L 164.820312 169.503906 C 159.140625 168.609375 153.746094 166.292969 148.808594 162.792969 Z M 59.28125 75.667969 C 80.140625 75.667969 97.113281 58.695312 97.113281 37.832031 C 97.113281 16.972656 80.140625 0 59.28125 0 C 38.417969 0 21.445312 16.972656 21.445312 37.835938 C 21.445312 58.695312 38.417969 75.667969 59.28125 75.667969 Z M 86.566406 37.835938 C 86.566406 43.664062 84.722656 49.066406 81.597656 53.507812 C 78.382812 48.957031 76.65625 43.550781 76.65625 37.835938 C 76.65625 32.121094 78.382812 26.710938 81.597656 22.164062 C 84.722656 26.601562 86.566406 32.003906 86.566406 37.835938 Z M 73.921875 14.828125 C 68.910156 21.390625 66.109375 29.5 66.109375 37.832031 C 66.109375 46.167969 68.910156 54.277344 73.921875 60.839844 C 69.6875 63.542969 64.667969 65.121094 59.28125 65.121094 C 53.894531 65.121094 48.871094 63.542969 44.636719 60.839844 C 49.652344 54.277344 52.453125 46.167969 52.453125 37.835938 C 52.453125 29.5 49.652344 21.390625 44.636719 14.828125 C 48.871094 12.125 53.894531 10.546875 59.28125 10.546875 C 64.667969 10.546875 69.6875 12.125 73.921875 14.828125 Z M 36.964844 22.164062 C 40.175781 26.710938 41.902344 32.121094 41.902344 37.835938 C 41.902344 43.550781 40.175781 48.957031 36.964844 53.507812 C 33.839844 49.066406 31.996094 43.664062 31.996094 37.835938 C 31.996094 32.003906 33.839844 26.601562 36.964844 22.164062 Z M 36.964844 22.164062 " fill-opacity="1" fill-rule="nonzero"/></svg>