<?xml version="1.0" standalone="no"?>
<!DOCTYPE svg PUBLIC "-//W3C//DTD SVG 20010904//EN"
 "http://www.w3.org/TR/2001/REC-SVG-20010904/DTD/svg10.dtd">
<svg version="1.0" xmlns="http://www.w3.org/2000/svg"
 width="512.000000pt" height="512.000000pt" viewBox="0 0 512.000000 512.000000"
 preserveAspectRatio="xMidYMid meet">

<g transform="translate(0.000000,512.000000) scale(0.100000,-0.100000)"
fill="#000000" stroke="none">
<path d="M2285 4929 c-441 -53 -878 -238 -1225 -517 -482 -389 -802 -976 -869
-1594 -26 -240 -9 -545 45 -788 108 -485 397 -966 769 -1278 365 -306 758
-486 1209 -553 182 -27 506 -29 671 -4 546 82 1020 323 1390 706 355 368 572
813 650 1334 25 165 23 489 -4 671 -51 345 -179 678 -372 968 -372 561 -934
924 -1614 1042 -108 19 -530 27 -650 13z m137 -752 c24 -33 56 -56 123 -90 89
-46 92 -46 232 -57 191 -14 359 -56 412 -102 21 -18 69 -53 105 -78 37 -25 91
-63 119 -85 29 -23 74 -56 101 -74 26 -18 62 -53 79 -77 17 -24 33 -44 36 -44
3 0 13 13 22 29 9 16 37 41 62 56 39 22 58 26 119 27 74 0 168 -29 168 -52 0
-5 18 -21 40 -35 23 -14 44 -34 47 -43 4 -9 20 -32 36 -51 27 -32 29 -39 24
-89 -8 -72 -24 -89 -69 -73 -28 10 -34 10 -43 -5 -5 -10 -20 -27 -32 -39 -12
-11 -29 -39 -38 -62 -12 -31 -23 -42 -43 -46 -23 -4 -88 -26 -101 -34 -2 -1
11 -15 30 -30 18 -15 54 -49 79 -75 25 -27 52 -48 61 -48 29 0 162 107 210
168 74 93 80 110 68 181 -8 44 -19 70 -40 92 -16 17 -29 33 -29 35 0 2 11 4
25 4 14 0 39 -13 57 -30 29 -28 32 -29 49 -14 10 9 25 38 34 64 9 26 25 56 36
66 19 17 20 17 26 -5 l6 -24 18 24 c15 20 20 22 31 11 18 -18 16 -90 -4 -129
-21 -41 -3 -44 20 -3 18 31 42 40 42 16 0 -31 -87 -185 -132 -232 -26 -28 -64
-82 -84 -120 -21 -38 -56 -94 -79 -124 -52 -68 -198 -210 -215 -210 -10 0 -95
44 -232 120 -51 28 -141 95 -179 133 -21 20 -43 37 -49 37 -6 0 -34 -12 -63
-26 -29 -15 -89 -35 -134 -45 -45 -10 -108 -32 -140 -48 -32 -17 -63 -31 -70
-31 -22 0 -204 -83 -201 -91 2 -5 26 -23 55 -41 59 -38 222 -168 303 -243 30
-28 77 -68 103 -89 26 -21 55 -49 64 -62 21 -33 10 -86 -29 -129 -39 -45 -280
-220 -407 -296 -161 -96 -244 -183 -247 -259 -3 -64 80 -173 151 -201 51 -19
68 -46 52 -79 -11 -22 -20 -25 -72 -28 -79 -4 -143 18 -235 82 -41 29 -105 69
-141 89 -37 20 -80 50 -98 66 -32 30 -42 71 -18 71 8 0 38 28 67 63 29 34 61
62 71 62 25 1 251 214 341 322 39 47 97 106 130 131 32 25 55 49 50 54 -5 5
-69 29 -143 54 -74 24 -172 63 -219 86 -47 23 -97 47 -111 54 -24 12 -34 10
-98 -21 -39 -19 -97 -52 -128 -73 -121 -82 -395 -232 -423 -232 -6 0 -54 -23
-106 -50 -52 -27 -103 -50 -112 -50 -31 0 -166 -47 -229 -78 -34 -18 -96 -45
-138 -62 -108 -43 -209 -95 -247 -128 -18 -16 -61 -48 -95 -71 -41 -28 -63
-50 -63 -62 0 -10 -5 -19 -11 -19 -13 0 -119 -100 -119 -112 0 -5 -17 -30 -37
-57 -21 -27 -46 -63 -55 -80 -12 -22 -24 -31 -42 -31 -57 0 -72 88 -36 202 26
78 52 179 75 283 9 44 24 92 31 108 16 30 51 37 61 12 7 -20 66 -45 105 -45
58 0 181 74 406 247 34 26 74 53 87 61 29 15 211 72 230 72 7 0 39 14 71 31
41 21 93 65 170 144 60 62 141 133 180 158 80 52 104 77 128 132 61 137 98
183 181 224 34 17 70 31 78 31 9 0 19 5 22 10 3 6 16 10 29 10 12 0 46 16 76
35 30 19 60 35 66 35 6 0 18 7 25 16 8 9 32 28 53 42 22 14 60 46 86 71 46 47
147 128 269 213 36 25 79 60 94 76 l29 30 -49 55 c-26 30 -63 73 -81 95 -27
34 -40 42 -80 48 -26 3 -89 22 -140 41 -115 42 -240 67 -307 60 -117 -12 -167
-35 -186 -84 -12 -31 -39 -19 -39 17 0 15 9 39 20 53 11 14 20 30 20 35 0 13
-34 21 -90 23 -69 2 -104 12 -108 32 -3 15 5 17 62 17 71 0 96 14 44 25 -89
18 -108 26 -108 45 0 25 15 28 74 13 78 -20 86 -15 29 18 -56 32 -60 38 -42
56 9 9 28 3 75 -20 35 -17 66 -28 69 -25 4 3 -7 28 -24 54 -16 27 -27 52 -25
56 12 18 35 5 66 -35z"/>
</g>
</svg>
