<svg xmlns="http://www.w3.org/2000/svg" xmlns:xlink="http://www.w3.org/1999/xlink" width="436" zoomAndPan="magnify" viewBox="0 0 327 326.999992" height="436" preserveAspectRatio="xMidYMid meet" version="1.0"><defs><clipPath id="c08f9e3c00"><path d="M 9.011719 0 L 320 0 L 320 324 L 9.011719 324 Z M 9.011719 0 " clip-rule="nonzero"/></clipPath></defs><path fill="#000000" d="M 66.097656 85.589844 L 37.542969 85.589844 C 34.914062 85.589844 32.785156 87.714844 32.785156 90.34375 L 32.785156 118.878906 C 32.785156 121.503906 34.914062 123.632812 37.542969 123.632812 L 66.097656 123.632812 C 68.726562 123.632812 70.859375 121.503906 70.859375 118.878906 L 70.859375 90.34375 C 70.859375 87.71875 68.726562 85.589844 66.097656 85.589844 Z M 61.339844 114.121094 L 42.304688 114.121094 L 42.304688 95.097656 L 61.339844 95.097656 Z M 61.339844 114.121094 " fill-opacity="1" fill-rule="nonzero"/><path fill="#000000" d="M 45.183594 179.511719 C 47.382812 181.453125 50.816406 180.957031 52.371094 178.457031 L 70.140625 149.925781 C 71.527344 147.695312 70.84375 144.761719 68.613281 143.375 C 66.382812 141.988281 63.445312 142.667969 62.058594 144.898438 L 47.261719 168.660156 L 40.695312 162.867188 C 38.722656 161.132812 35.714844 161.320312 33.976562 163.289062 C 32.238281 165.257812 32.425781 168.261719 34.394531 170 Z M 45.183594 179.511719 " fill-opacity="1" fill-rule="nonzero"/><path fill="#000000" d="M 89.894531 95.097656 L 208.867188 95.097656 C 211.496094 95.097656 213.628906 92.972656 213.628906 90.34375 C 213.628906 87.714844 211.496094 85.589844 208.867188 85.589844 L 89.894531 85.589844 C 87.265625 85.589844 85.136719 87.714844 85.136719 90.34375 C 85.136719 92.972656 87.265625 95.097656 89.894531 95.097656 Z M 89.894531 95.097656 " fill-opacity="1" fill-rule="nonzero"/><path fill="#000000" d="M 89.894531 123.632812 L 208.867188 123.632812 C 211.496094 123.632812 213.628906 121.503906 213.628906 118.878906 C 213.628906 116.25 211.496094 114.121094 208.867188 114.121094 L 89.894531 114.121094 C 87.265625 114.121094 85.136719 116.25 85.136719 118.878906 C 85.136719 121.503906 87.265625 123.632812 89.894531 123.632812 Z M 89.894531 123.632812 " fill-opacity="1" fill-rule="nonzero"/><path fill="#000000" d="M 89.894531 152.167969 L 208.867188 152.167969 C 211.496094 152.167969 213.628906 150.039062 213.628906 147.410156 C 213.628906 144.785156 211.496094 142.65625 208.867188 142.65625 L 89.894531 142.65625 C 87.265625 142.65625 85.136719 144.785156 85.136719 147.410156 C 85.136719 150.039062 87.265625 152.167969 89.894531 152.167969 Z M 89.894531 152.167969 " fill-opacity="1" fill-rule="nonzero"/><path fill="#000000" d="M 89.894531 180.699219 L 208.867188 180.699219 C 211.496094 180.699219 213.628906 178.574219 213.628906 175.945312 C 213.628906 173.320312 211.496094 171.191406 208.867188 171.191406 L 89.894531 171.191406 C 87.265625 171.191406 85.136719 173.320312 85.136719 175.945312 C 85.136719 178.574219 87.265625 180.699219 89.894531 180.699219 Z M 89.894531 180.699219 " fill-opacity="1" fill-rule="nonzero"/><path fill="#000000" d="M 66.097656 199.722656 L 37.542969 199.722656 C 34.914062 199.722656 32.785156 201.851562 32.785156 204.480469 L 32.785156 233.011719 C 32.785156 235.640625 34.914062 237.769531 37.542969 237.769531 L 66.097656 237.769531 C 68.726562 237.769531 70.859375 235.640625 70.859375 233.011719 L 70.859375 204.480469 C 70.859375 201.851562 68.726562 199.722656 66.097656 199.722656 Z M 61.339844 228.257812 L 42.304688 228.257812 L 42.304688 209.234375 L 61.339844 209.234375 Z M 61.339844 228.257812 " fill-opacity="1" fill-rule="nonzero"/><path fill="#000000" d="M 68.613281 257.507812 C 66.382812 256.125 63.445312 256.804688 62.058594 259.035156 L 47.261719 282.796875 L 40.695312 277.003906 C 38.722656 275.265625 35.714844 275.453125 33.976562 277.421875 C 32.238281 279.390625 32.425781 282.398438 34.394531 284.136719 L 45.183594 293.648438 C 47.382812 295.589844 50.816406 295.09375 52.371094 292.59375 L 70.140625 264.058594 C 71.527344 261.828125 70.84375 258.898438 68.613281 257.507812 Z M 68.613281 257.507812 " fill-opacity="1" fill-rule="nonzero"/><g clip-path="url(#c08f9e3c00)"><path fill="#000000" d="M 306.011719 209.054688 C 300.886719 202.589844 294.582031 198.339844 287.78125 196.5 C 290.09375 190.710938 290.511719 184.28125 288.855469 178.066406 C 288.414062 176.417969 287.128906 175.132812 285.480469 174.695312 C 275.816406 172.121094 265.457031 174.679688 258.113281 181.367188 L 258.113281 166.519531 C 258.113281 163.894531 255.984375 161.765625 253.355469 161.765625 C 250.726562 161.765625 248.59375 163.894531 248.59375 166.519531 C 248.59375 172.453125 248.59375 190.613281 248.59375 203.585938 C 244.96875 200.761719 241.210938 198.695312 237.421875 197.351562 L 237.421875 61.808594 C 237.421875 48.699219 226.75 38.03125 213.628906 38.03125 L 182.34375 38.03125 L 177.226562 22.292969 C 176.589844 20.335938 174.761719 19.007812 172.699219 19.007812 L 146.132812 19.007812 C 144.117188 8.195312 134.601562 -0.0117188 123.207031 -0.0117188 C 111.8125 -0.0117188 102.300781 8.195312 100.28125 19.007812 L 73.714844 19.007812 C 71.652344 19.007812 69.824219 20.335938 69.1875 22.292969 L 64.070312 38.03125 L 32.785156 38.03125 C 19.664062 38.03125 8.992188 48.699219 8.992188 61.808594 L 8.992188 299.59375 C 8.992188 312.703125 19.664062 323.371094 32.785156 323.371094 C 32.890625 323.371094 235.980469 323.375 236.085938 323.375 C 242.160156 323.375 248.027344 321.605469 253.351562 318.023438 C 278.949219 335.242188 312.621094 309.515625 318.3125 264.085938 C 320.992188 242.71875 316.390625 222.148438 306.011719 209.054688 Z M 280.199219 183.347656 C 280.703125 187.59375 279.832031 191.851562 277.695312 195.542969 C 271.132812 196.035156 264.429688 198.664062 258.113281 203.585938 L 258.113281 201.382812 C 259.042969 190.222656 269.046875 182.058594 280.199219 183.347656 Z M 77.171875 28.519531 L 104.648438 28.519531 C 107.277344 28.519531 109.40625 26.390625 109.40625 23.765625 L 109.40625 23.289062 C 109.40625 15.683594 115.597656 9.496094 123.207031 9.496094 C 130.816406 9.496094 137.007812 15.683594 137.007812 23.289062 L 137.007812 23.765625 C 137.007812 26.390625 139.136719 28.519531 141.765625 28.519531 L 169.242188 28.519531 C 170.378906 32.007812 177.660156 54.402344 178.523438 57.054688 L 67.890625 57.054688 C 78.386719 24.789062 77.039062 28.929688 77.171875 28.519531 Z M 32.785156 313.859375 C 24.914062 313.859375 18.507812 307.457031 18.507812 299.59375 L 18.507812 61.808594 C 18.507812 53.945312 24.914062 47.542969 32.785156 47.542969 L 60.976562 47.542969 L 56.8125 60.339844 C 55.816406 63.40625 58.105469 66.566406 61.339844 66.566406 L 185.074219 66.566406 C 188.300781 66.566406 190.597656 63.414062 189.601562 60.339844 L 185.4375 47.542969 L 213.628906 47.542969 C 221.5 47.542969 227.90625 53.945312 227.90625 61.808594 L 227.90625 195.488281 C 222.101562 195.265625 216.4375 196.710938 211.277344 199.722656 L 89.894531 199.722656 C 87.265625 199.722656 85.136719 201.851562 85.136719 204.480469 C 85.136719 207.105469 87.265625 209.234375 89.894531 209.234375 L 200.554688 209.234375 C 196.40625 214.519531 193.191406 221.003906 191.003906 228.257812 L 89.894531 228.257812 C 87.265625 228.257812 85.136719 230.386719 85.136719 233.011719 C 85.136719 235.640625 87.265625 237.769531 89.894531 237.769531 L 188.8125 237.769531 C 187.804688 243.824219 187.4375 250.234375 187.761719 256.792969 L 89.894531 256.792969 C 87.265625 256.792969 85.136719 258.921875 85.136719 261.546875 C 85.136719 264.175781 87.265625 266.304688 89.894531 266.304688 L 188.699219 266.304688 C 189.652344 272.5625 191.347656 279.058594 193.722656 285.324219 L 89.894531 285.324219 C 87.265625 285.324219 85.136719 287.453125 85.136719 290.082031 C 85.136719 292.707031 87.265625 294.835938 89.894531 294.835938 L 197.960938 294.835938 C 201.789062 302.203125 206.632812 308.839844 212.386719 313.859375 Z M 308.871094 262.902344 C 306.035156 285.527344 290.707031 316.113281 268.386719 313.742188 C 264.09375 313.285156 260.066406 311.5 256.414062 308.433594 C 254.644531 306.945312 252.058594 306.945312 250.289062 308.433594 C 246.636719 311.5 242.609375 313.285156 238.316406 313.742188 C 202.574219 317.542969 183.839844 245.625 208.152344 214.964844 C 212.757812 209.15625 218.414062 205.746094 224.519531 205.09375 C 234.429688 204.035156 243.308594 210.207031 249.679688 217.902344 C 251.597656 220.230469 255.167969 220.203125 257.054688 217.867188 C 264.648438 208.714844 273.566406 204.175781 282.183594 205.09375 C 288.289062 205.746094 293.949219 209.15625 298.550781 214.960938 C 307.378906 226.09375 311.234375 244.019531 308.871094 262.902344 Z M 308.871094 262.902344 " fill-opacity="1" fill-rule="nonzero"/></g></svg>