<svg xmlns="http://www.w3.org/2000/svg" xmlns:xlink="http://www.w3.org/1999/xlink" width="436" zoomAndPan="magnify" viewBox="0 0 327 326.999992" height="436" preserveAspectRatio="xMidYMid meet" version="1.0"><path fill="#100f0d" d="M 316.101562 316.101562 L 305.199219 316.101562 L 305.199219 207.101562 C 305.199219 206.113281 304.929688 205.144531 304.421875 204.296875 L 293.023438 185.300781 L 307.28125 185.300781 L 316.101562 202.9375 Z M 228.738281 276.628906 C 228.132812 274.199219 225.953125 272.5 223.449219 272.5 C 220.949219 272.5 218.769531 274.199219 218.164062 276.628906 L 208.292969 316.101562 L 152.601562 316.101562 L 152.601562 208.609375 L 166.585938 185.300781 L 280.3125 185.300781 L 294.300781 208.609375 L 294.300781 316.101562 L 238.605469 316.101562 Z M 130.800781 202.9375 L 139.617188 185.300781 L 153.875 185.300781 L 142.476562 204.296875 C 141.96875 205.144531 141.699219 206.113281 141.699219 207.101562 L 141.699219 316.101562 L 130.800781 316.101562 Z M 59.949219 283.398438 L 59.949219 152.601562 C 59.949219 124.5 58.613281 102.933594 56.664062 86.414062 L 120.265625 52.488281 C 126.960938 53.820312 134.15625 54.5 141.699219 54.5 C 149.246094 54.5 156.441406 53.820312 163.136719 52.488281 L 226.710938 86.394531 C 224.859375 102.125 223.792969 120.609375 223.523438 141.699219 L 136.25 141.699219 C 133.242188 141.699219 130.800781 144.140625 130.800781 147.148438 L 130.800781 178.5625 L 120.476562 199.210938 C 120.097656 199.96875 119.898438 200.804688 119.898438 201.648438 L 119.898438 283.398438 Z M 26.171875 64.132812 C 30.082031 55.726562 34.007812 50.246094 36.859375 46.933594 C 38.230469 50.136719 39.960938 55.113281 41.671875 62.5625 C 44.910156 76.609375 48.738281 102.558594 49.03125 147.148438 L 10.941406 147.148438 C 11.566406 104.4375 19.484375 78.515625 26.171875 64.132812 Z M 256.761719 63.148438 C 268.203125 87.089844 271.621094 118.113281 272.335938 141.699219 L 234.421875 141.699219 C 235.214844 82 242.5 56.5625 246.558594 46.957031 C 249.304688 50.148438 253.023438 55.324219 256.761719 63.148438 Z M 294.300781 152.601562 L 305.199219 152.601562 L 305.199219 174.398438 L 294.300781 174.398438 Z M 272.5 152.601562 L 283.398438 152.601562 L 283.398438 174.398438 L 272.5 174.398438 Z M 250.699219 152.601562 L 261.601562 152.601562 L 261.601562 174.398438 L 250.699219 174.398438 Z M 228.898438 152.601562 L 239.800781 152.601562 L 239.800781 174.398438 L 228.898438 174.398438 Z M 208.902344 24.53125 L 237.632812 40.203125 C 235.976562 43.59375 233.980469 48.726562 232.027344 56.320312 C 230.601562 61.863281 229.355469 68.058594 228.28125 74.882812 L 178.105469 48.121094 C 193.214844 42.132812 202.867188 32.882812 208.902344 24.53125 Z M 109.5625 10.898438 L 173.835938 10.898438 C 168.007812 16.050781 157.878906 21.800781 141.699219 21.800781 C 125.515625 21.800781 115.382812 16.042969 109.5625 10.898438 Z M 120.617188 41.433594 C 101.898438 37.285156 90.710938 27.839844 84.160156 19.261719 L 96.332031 12.621094 C 101.890625 19.835938 115.476562 32.699219 141.699219 32.699219 C 167.921875 32.699219 181.507812 19.835938 187.070312 12.621094 L 199.238281 19.261719 C 192.691406 27.839844 181.5 37.285156 162.78125 41.433594 C 156.304688 42.871094 149.210938 43.601562 141.699219 43.601562 C 134.191406 43.601562 127.09375 42.871094 120.617188 41.433594 Z M 45.761719 40.207031 L 74.5 24.53125 C 80.535156 32.882812 90.1875 42.132812 105.292969 48.121094 L 55.09375 74.894531 C 52.171875 56.261719 48.5 45.839844 45.761719 40.207031 Z M 207.101562 152.601562 L 218 152.601562 L 218 174.398438 L 207.101562 174.398438 Z M 185.300781 152.601562 L 196.199219 152.601562 L 196.199219 174.398438 L 185.300781 174.398438 Z M 163.5 174.398438 L 163.5 152.601562 L 174.398438 152.601562 L 174.398438 174.398438 Z M 141.699219 174.398438 L 141.699219 152.601562 L 152.601562 152.601562 L 152.601562 174.398438 Z M 316.101562 178.5625 L 316.101562 147.148438 C 316.101562 144.140625 313.660156 141.699219 310.648438 141.699219 L 283.242188 141.699219 C 280.777344 56.28125 249.625 34.515625 248.273438 33.617188 C 248.140625 33.527344 248 33.441406 247.859375 33.367188 L 187.910156 0.664062 C 187.109375 0.230469 186.210938 0 185.300781 0 L 98.101562 0 C 97.1875 0 96.289062 0.230469 95.488281 0.664062 L 35.539062 33.367188 C 35.398438 33.441406 35.261719 33.527344 35.128906 33.617188 C 33.691406 34.570312 0 58.117188 0 152.601562 C 0 155.609375 2.441406 158.050781 5.449219 158.050781 L 49.050781 158.050781 L 49.050781 288.851562 C 49.050781 291.859375 51.492188 294.300781 54.5 294.300781 L 119.898438 294.300781 L 119.898438 321.550781 C 119.898438 324.558594 122.339844 327 125.351562 327 L 212.550781 327 C 215.050781 327 217.230469 325.300781 217.835938 322.871094 L 223.449219 300.421875 L 229.0625 322.871094 C 229.667969 325.300781 231.847656 327 234.351562 327 L 321.550781 327 C 324.558594 327 327 324.558594 327 321.550781 L 327 201.648438 C 327 200.804688 326.804688 199.96875 326.425781 199.210938 L 316.101562 178.5625 " fill-opacity="1" fill-rule="nonzero"/></svg>